<svg xmlns="http://www.w3.org/2000/svg" xmlns:xlink="http://www.w3.org/1999/xlink" width="136.389" height="39.028" viewBox="0 0 136.389 39.028">
  <defs>
    <linearGradient id="linear-gradient" x1="0.5" x2="0.355" y2="0.767" gradientUnits="objectBoundingBox">
      <stop offset="0" stop-color="#007fff"/>
      <stop offset="1" stop-color="#0062ff"/>
    </linearGradient>
    <linearGradient id="linear-gradient-2" x1="0.5" x2="0.5" y2="1" gradientUnits="objectBoundingBox">
      <stop offset="0" stop-color="#00baff"/>
      <stop offset="1" stop-color="#0062ff"/>
    </linearGradient>
  </defs>
  <g id="pc_logo" transform="translate(-283 -11.258)">
    <path id="Path_4590" data-name="Path 4590" d="M7.811,0H35.585c1.917,0,3.876,1.3,3.472,3.472l-4.34,27.773c-.327,1.776-1.554,3.472-3.472,3.472H3.472A3.472,3.472,0,0,1,0,31.245L4.34,3.472A3.472,3.472,0,0,1,7.811,0Z" transform="translate(285.632 15.57)" fill="url(#linear-gradient)"/>
    <path id="Path_4587" data-name="Path 4587" d="M7.709,0H35.482c1.917,0,3.832,1.485,3.472,3.472l-4.34,27.773a3.734,3.734,0,0,1-3.472,3.472H3.369c-1.917,0-3.751-1.607-3.472-3.472L4.237,3.472C4.568.9,5.792,0,7.709,0Z" transform="translate(283.131 15.57)" fill="url(#linear-gradient-2)"/>
    <path id="Intersection_2" data-name="Intersection 2" d="M15.475,27.226a2.038,2.038,0,1,1,2.035,2.143A2.092,2.092,0,0,1,15.475,27.226Zm-12.129,0a2.091,2.091,0,0,1,2.035-2.143,2.146,2.146,0,0,1,0,4.286A2.091,2.091,0,0,1,3.346,27.226Zm6.8-5.289-.849-3.945H20.517L22.6,10.508H7.835L7.1,6.639h20.12l-3.847,15.3ZM3.4,21.895S3.316,21.777,0,5.824l.392-2.51C.646,1.342,1.423.354,2.635,0L7.1,21.895Z" transform="translate(286.976 15.727)" fill="#fff"/>
    <g id="Group_2" data-name="Group 2" transform="translate(324.306 5)">
      <path id="Path_78062" data-name="Path 78062" d="M8.778-12.122a4.753,4.753,0,0,0-3.432,1.65v-1.254H1.936L-.4,4.95,3.5,4.532l.594-4.4A7.618,7.618,0,0,0,6.182.4c4.686,0,6.226-4.576,6.226-7.964C12.408-10.472,11.2-12.122,8.778-12.122ZM7.238-9.284c.682,0,1.21.352,1.21,1.848,0,2.068-.682,5.016-2.64,5.016a3.254,3.254,0,0,1-1.3-.242L5.28-8.03A2.476,2.476,0,0,1,7.238-9.284ZM23.254,0l1.628-11.726H21.054L20.02-4.356c-.572.924-1.232,1.65-1.87,1.65-.506,0-.77-.264-.616-1.32l1.056-7.7H14.74l-1.188,8.4C13.244-1.078,14.08.4,16.324.4a4.742,4.742,0,0,0,3.652-2L19.91,0ZM33.726-12.078a4.051,4.051,0,0,0-3.278,2.486l.022-2.134H27.126L25.5,0h3.85l.726-5.17c.594-1.716,1.3-3.1,2.728-3.1a3.379,3.379,0,0,1,1.012.176l1.078-3.784A3.077,3.077,0,0,0,33.726-12.078Zm7.106-.044c-4.884,0-6.732,4.378-6.732,7.414,0,3.1,1.892,5.1,5.17,5.1A6.811,6.811,0,0,0,43.406-.968L42-3.432a4.08,4.08,0,0,1-2.2.792c-.99,0-1.672-.44-1.672-1.958,0-1.87.506-4.554,2.728-4.554a2.711,2.711,0,0,1,1.958.814l1.87-2.222A5.24,5.24,0,0,0,40.832-12.122Zm12.3,0a4.609,4.609,0,0,0-3.652,2.354l.99-6.974-3.872.4L44.308,0h3.85l.88-6.27c.792-1.65,1.628-2.662,2.266-2.662.44,0,.748.242.572,1.32L50.732,0h3.85L55.77-8.58C56.078-10.8,55.066-12.122,53.13-12.122Zm10.516,0c-5.06,0-6.842,4.422-6.842,7.81C56.8-1.43,58.08.4,60.654.4a4.013,4.013,0,0,0,3.454-2A2.994,2.994,0,0,0,67.012.33l1.1-2.508a.8.8,0,0,1-.572-.88,4.732,4.732,0,0,1,.044-.506l1.056-7.26A10.081,10.081,0,0,0,63.646-12.122Zm-.132,2.728a3.158,3.158,0,0,1,1.122.176l-.792,5.324c-.594.946-1.254,1.474-1.936,1.474-.638,0-1.166-.352-1.166-1.892C60.742-6.49,61.446-9.394,63.514-9.394Zm11.55-2.728c-3.344,0-5.17,1.782-5.17,3.894,0,1.65,1.056,2.816,2.948,3.476,1.848.638,2.266.836,2.266,1.452s-.594.946-1.606.946a4.468,4.468,0,0,1-3.036-1.254L68.53-1.584A6.824,6.824,0,0,0,73.546.4c3.982,0,5.368-2.112,5.368-4.136,0-1.87-1.056-2.948-2.97-3.586C74.1-7.92,73.722-8.074,73.722-8.6c0-.484.4-.77,1.342-.77a4.578,4.578,0,0,1,2.684.9L79.42-10.6A6.741,6.741,0,0,0,75.064-12.122ZM91.278-8.844c0-1.848-1.584-3.278-4.532-3.278-5.06,0-6.8,4.334-6.8,7.524C79.948-1.628,81.62.4,85.206.4A8.211,8.211,0,0,0,90.024-1.21L88.66-3.5A5.186,5.186,0,0,1,85.712-2.42a1.708,1.708,0,0,1-1.914-1.8C87.318-4.554,91.278-5.566,91.278-8.844ZM83.952-6.512c.286-1.54.99-3.08,2.4-3.08.814,0,1.056.44,1.056.99C87.406-7.92,86.768-6.688,83.952-6.512Z" transform="translate(2.96 23)" fill="#02103b"/>
      <path id="Path_78063" data-name="Path 78063" d="M7.15-12.122C2.266-12.122.418-7.744.418-4.708c0,3.1,1.892,5.1,5.17,5.1A6.811,6.811,0,0,0,9.724-.968L8.316-3.432a4.08,4.08,0,0,1-2.2.792c-.99,0-1.672-.44-1.672-1.958,0-1.87.506-4.554,2.728-4.554a2.711,2.711,0,0,1,1.958.814L11-10.56A5.24,5.24,0,0,0,7.15-12.122Zm9.174,0c-5.016,0-6.666,4.114-6.666,7.5C9.658-1.474,11.506.4,14.674.4c5.038,0,6.666-4.136,6.688-7.5C21.384-10.186,19.514-12.122,16.324-12.122Zm-.286,2.838c.946,0,1.408.572,1.386,1.958-.022,1.65-.352,4.884-2.442,4.884-.946,0-1.386-.55-1.386-1.958C13.6-6.05,13.948-9.284,16.038-9.284Zm19.844-2.838a4.6,4.6,0,0,0-3.5,2.112,2.425,2.425,0,0,0-2.618-2.112A4.453,4.453,0,0,0,26.2-9.9l.022-1.826H22.88L21.252,0H25.1l.88-6.314c.594-1.628,1.364-2.618,1.98-2.618.4,0,.7.242.528,1.32L27.346,0H31.2l.88-6.4c.638-1.562,1.386-2.53,1.98-2.53.418,0,.7.242.55,1.32L33.462,0H37.29L38.5-8.58C38.808-10.8,37.774-12.122,35.882-12.122Zm17.292,0a4.6,4.6,0,0,0-3.5,2.112,2.425,2.425,0,0,0-2.618-2.112A4.453,4.453,0,0,0,43.494-9.9l.022-1.826H40.172L38.544,0h3.85l.88-6.314c.594-1.628,1.364-2.618,1.98-2.618.4,0,.7.242.528,1.32L44.638,0h3.85l.88-6.4c.638-1.562,1.386-2.53,1.98-2.53.418,0,.7.242.55,1.32L50.754,0h3.828l1.21-8.58C56.1-10.8,55.066-12.122,53.174-12.122ZM67.3-8.844c0-1.848-1.584-3.278-4.532-3.278-5.06,0-6.8,4.334-6.8,7.524C55.968-1.628,57.64.4,61.226.4A8.211,8.211,0,0,0,66.044-1.21L64.68-3.5A5.186,5.186,0,0,1,61.732-2.42a1.708,1.708,0,0,1-1.914-1.8C63.338-4.554,67.3-5.566,67.3-8.844ZM59.972-6.512c.286-1.54.99-3.08,2.4-3.08.814,0,1.056.44,1.056.99C63.426-7.92,62.788-6.688,59.972-6.512ZM75.02-12.078a4.051,4.051,0,0,0-3.278,2.486l.022-2.134H68.42L66.792,0h3.85l.726-5.17c.594-1.716,1.3-3.1,2.728-3.1a3.379,3.379,0,0,1,1.012.176l1.078-3.784A3.077,3.077,0,0,0,75.02-12.078Zm6.226-.044c-4.884,0-6.732,4.378-6.732,7.414,0,3.1,1.892,5.1,5.17,5.1A6.811,6.811,0,0,0,83.82-.968L82.412-3.432a4.08,4.08,0,0,1-2.2.792c-.99,0-1.672-.44-1.672-1.958,0-1.87.506-4.554,2.728-4.554a2.711,2.711,0,0,1,1.958.814L85.1-10.56A5.24,5.24,0,0,0,81.246-12.122ZM95.084-8.844c0-1.848-1.584-3.278-4.532-3.278-5.06,0-6.8,4.334-6.8,7.524C83.754-1.628,85.426.4,89.012.4A8.211,8.211,0,0,0,93.83-1.21L92.466-3.5A5.186,5.186,0,0,1,89.518-2.42a1.708,1.708,0,0,1-1.914-1.8C91.124-4.554,95.084-5.566,95.084-8.844ZM87.758-6.512c.286-1.54.99-3.08,2.4-3.08.814,0,1.056.44,1.056.99C91.212-7.92,90.574-6.688,87.758-6.512Z" transform="translate(0 42.424)" fill="#02103b"/>
    </g>
  </g>
</svg>
